# xmcd CD database file
#
# Track frame offsets:
#	150
#	22950
#	38215
#	66735
#	87357
#	104850
#	120302
#	142690
#	156475
#	175155
#	193705
#
# Disc length: 2830 seconds
#
# Revision: 0
# Processed by: cddbd v1.5.1PL0 Copyright (c) Steve Scherf et al.
# Submitted via: CDex 1.50
#
DISCID=980b0c0b
DTITLE=Various Artist - Hot Rockin Blues
DYEAR=1994
DGENRE=Blues
TTITLE0=Iceman Albert Collins
TTITLE1=Dont treat me like that Duke Robilard
TTITLE2=Life is hard Johnny Winter
TTITLE3=King of blues Gary Moore
TTITLE4=Cant you lie Tinsley Ellis
TTITLE5=When I say jump Downchild Blues Band
TTITLE6=T-Bone Shuffle Robert Cray/Johnny Copeland/Albert Collins
TTITLE7=I aint lying Amos Garret
TTITLE8=Smoking Gun Robert Cray Band
TTITLE9=Hound dog man Lonnie Mack
TTITLE10=You wanna dance Long John Baldry
EXTD=YEAR: 1994
EXTT0=
EXTT1=
EXTT2=
EXTT3=
EXTT4=
EXTT5=
EXTT6=
EXTT7=
EXTT8=
EXTT9=
EXTT10=
PLAYORDER=
